<?xml version="1.0" encoding="utf-8"?>
<!-- Generator: Adobe Illustrator 22.1.0, SVG Export Plug-In . SVG Version: 6.00 Build 0)  -->
<svg version="1.1" id="Layer_1" xmlns="http://www.w3.org/2000/svg" xmlns:xlink="http://www.w3.org/1999/xlink" x="0px" y="0px"
	 viewBox="0 0 200 200" style="enable-background:new 0 0 200 200;" xml:space="preserve">
<style type="text/css">
	.st0{fill:none;}
	.st1{font-family:'MicrosoftSansSerif';}
	.st2{font-size:42.848px;}
	.st3{fill:#5D7A7F;}
	.st4{opacity:0.18;}
	.st5{opacity:0.2;fill:#F2F2F2;}
	.st6{opacity:0.1;}
	.st7{fill:#153E49;}
	.st8{fill:#FFCC01;}
	.st9{opacity:0.61;fill:#FFFFFF;}
	.st10{fill:#BA656D;}
</style>
<rect x="-30" y="50.9" class="st0" width="207.8" height="45.5"/>
<text transform="matrix(1 0 0 1 34.6357 81.6079)" class="st1 st2">NIM</text>
<g>
	<g>
		<g>
			<polygon class="st3" points="149.6,142.7 139.6,151.7 102.9,110.1 112.9,101.1 			"/>
			<path class="st4" d="M103.4,110.7l26.1,9.2l-16.1-18.2C113.4,101.7,108.3,107.3,103.4,110.7z"/>
		</g>
		<ellipse transform="matrix(0.2844 -0.9587 0.9587 0.2844 -8.9621 117.174)" class="st5" cx="74" cy="64.6" rx="52.7" ry="52.2"/>
		<path class="st6" d="M81.1,109.7c-9.8,0-19.3-2.2-28.2-6.2c-8.5-3.8-17.3-9.3-23.2-16.8c-2.4-3.1-4.5-6.5-6-10.1
			c3.3,12.9,11.4,24.5,23.6,31.9c18.6,11.2,41.4,9.4,57.9-2.9C97.6,108.5,89.2,109.7,81.1,109.7z"/>
		<path class="st7" d="M181,185.5l-4.3,3.9c-2.9,2.6-7.2,2.3-9.8-0.5l-37.7-42.7c-0.4-0.5-0.4-1.2,0.1-1.6l13-11.6
			c0.5-0.4,1.2-0.4,1.6,0.1l37.7,42.7C184.1,178.6,183.9,183,181,185.5z"/>
		<polygon class="st8" points="150.8,140.1 136.1,153.2 134.5,151.5 149.2,138.3 		"/>
		<polygon class="st8" points="154.4,144.4 139.7,157.6 138.2,155.8 152.8,142.6 		"/>
		<g>
			<path class="st7" d="M111.1,106.7c-23.1,20.7-58.6,18.7-79.1-4.5C11.6,79,13.8,43.3,36.9,22.5C60,1.8,95.5,3.8,115.9,27
				S134.3,85.9,111.1,106.7z M40.3,26.4c-21,18.8-23,51.3-4.4,72.4c18.6,21.1,50.8,22.9,71.9,4s23-51.3,4.4-72.4
				C93.5,9.3,61.3,7.5,40.3,26.4z"/>
		</g>
		<path class="st9" d="M92.3,22.9C85.7,19,77.6,17.6,70,18.6c-6.6,0.8-13.6,4-17.2,9.9c-0.5,0.9,0.3,2.3,1.4,1.7
			c5.1-2.9,10.3-5.2,16.2-5.9c6.7-0.8,13,1.4,19.2,3.6C92.5,29,95.2,24.6,92.3,22.9z"/>
	</g>
	<g>
		<path class="st10" d="M58.9,114.4c-27.3-8.1-42.8-37.1-34.7-64.6c8.2-27.5,37-43.3,64.3-35.2c27.3,8.1,42.8,37.1,34.7,64.6
			C115.1,106.6,86.2,122.5,58.9,114.4z M88.3,15.5C61.5,7.5,33.2,23,25.2,50c-8,27,7.2,55.4,34,63.4s55.1-7.6,63.1-34.6
			C130.3,51.8,115.1,23.4,88.3,15.5z"/>
	</g>
</g>
<rect x="218.8" y="112.3" class="st0" width="3.2" height="12.3"/>
</svg>
